:FULLY-SPECIFIED
:FORCE-ALL-JOINTS-BE-3DOF
:DEGREES
340
root 9.38847 16.5971 12.0333 5.99931 10.8247 -0.552128
lfemur 11.1892 7.63299 -11.4452
ltibia 34.2597 0 0
lfoot 9.20891 -1.95838 0
ltoes -10.3642 0 0
rfemur -35.6385 1.22155 23.2173
rtibia 41.9479 0 0
rfoot -10.0975 1.93631 0
rtoes -13.7433 0 0
lowerback -6.83493 -4.52726 -2.80026
upperback -1.50633 -5.92436 3.17507
thorax 2.89364 -2.9902 4.27511
lowerneck -20.0136 -5.17497 -12.5611
upperneck 21.2785 -6.71417 13.2367
head 11.1043 -2.54346 5.93123
lclavicle 5.50361e-15 -1.93661e-14 0
lhumerus -30.3181 -25.3783 102.475
lradius 28.6505 0 0
lwrist 4.41086 0 0
lhand -11.4946 -25.2712 0
lfingers 7.12502 0 0
lthumb 14.544 4.19966 0
rclavicle 5.50361e-15 -1.93661e-14 0
rhumerus -46.6738 5.70808 -81.6495
rradius 30.3635 0 0
rwrist -13.7658 0 0
rhand -27.6109 -26.7739 0
rfingers 7.12502 0 0
rthumb -1.01019 -56.75 0
341
root 9.3762 16.6213 12.1806 6.00186 10.7506 -0.6852
lfemur 9.80119 7.69795 -11.4281
ltibia 36.2216 0 0
lfoot 8.77359 -1.35444 0
ltoes -10.1357 0 0
rfemur -34.9929 1.32934 23.5558
rtibia 41.7243 0 0
rfoot -10.1623 2.04509 0
rtoes -13.5893 0 0
lowerback -6.77997 -4.41313 -2.66554
upperback -1.50613 -5.78288 3.17086
thorax 2.83908 -2.91748 4.21319
lowerneck -20.0225 -5.22101 -12.5979
upperneck 21.2381 -6.77664 13.2895
head 11.1053 -2.56863 5.94603
lclavicle 6.87929e-15 -1.84177e-14 0
lhumerus -30.868 -25.1374 102.485
lradius 28.3984 0 0
lwrist 4.53907 0 0
lhand -11.6607 -25.0717 0
lfingers 7.12502 0 0
lthumb 14.384 4.41052 0
rclavicle 6.87929e-15 -1.84177e-14 0
rhumerus -46.4107 6.08539 -81.8134
rradius 30.7845 0 0
rwrist -14.1575 0 0
rhand -27.7162 -26.8414 0
rfingers 7.12502 0 0
rthumb -1.11188 -56.8165 0
342
root 9.36464 16.6477 12.3248 6.01263 10.6619 -0.807954
lfemur 8.30441 7.75525 -11.4685
ltibia 38.2587 0 0
lfoot 8.20589 -0.686186 0
ltoes -9.8519 0 0
rfemur -34.3147 1.4665 23.8672
rtibia 41.4187 0 0
rfoot -10.283 2.11121 0
rtoes -13.4347 0 0
lowerback -6.72551 -4.28983 -2.53552
upperback -1.50461 -5.62826 3.16029
thorax 2.78493 -2.83834 4.14841
lowerneck -20.0253 -5.27113 -12.6413
upperneck 21.1928 -6.84449 13.3475
head 11.1047 -2.5964 5.96288
lclavicle 8.40407e-15 -1.72635e-14 0
lhumerus -31.4177 -24.9315 102.466
lradius 28.1702 0 0
lwrist 4.71612 0 0
lhand -11.8269 -24.8408 0
lfingers 7.12502 0 0
lthumb 14.2238 4.65271 0
rclavicle 8.40407e-15 -1.72635e-14 0
rhumerus -46.1378 6.49699 -81.9985
rradius 31.2511 0 0
rwrist -14.6041 0 0
rhand -27.8339 -26.9015 0
rfingers 7.12502 0 0
rthumb -1.22548 -56.8755 0
343
root 9.35378 16.676 12.4663 6.03052 10.5594 -0.921407
lfemur 6.71293 7.80494 -11.5603
ltibia 40.3509 0 0
lfoot 7.52086 0.0366367 0
ltoes -9.52141 0 0
rfemur -33.6071 1.62956 24.154
rtibia 41.0394 0 0
rfoot -10.4538 2.13945 0
rtoes -13.2815 0 0
lowerback -6.67165 -4.15826 -2.40985
upperback -1.50171 -5.46177 3.14417
thorax 2.73149 -2.75343 4.08127
lowerneck -20.0226 -5.32468 -12.69
upperneck 21.1436 -6.9169 13.4096
head 11.1028 -2.62639 5.98136
lclavicle 1.0046e-14 -1.59341e-14 0
lhumerus -31.9666 -24.7559 102.419
lradius 27.9643 0 0
lwrist 4.936 0 0
lhand -11.9925 -24.5829 0
lfingers 7.12502 0 0
lthumb 14.0643 4.9215 0
rclavicle 1.0046e-14 -1.59341e-14 0
rhumerus -45.8552 6.93836 -82.2014
rradius 31.7574 0 0
rwrist -15.0978 0 0
rhand -27.9623 -26.9546 0
rfingers 7.12502 0 0
rthumb -1.34956 -56.9275 0
344
root 9.34362 16.7058 12.6051 6.05448 10.4439 -1.02657
lfemur 5.04073 7.84707 -11.6976
ltibia 42.4784 0 0
lfoot 6.73353 0.804282 0
ltoes -9.15273 0 0
rfemur -32.8735 1.815 24.4185
rtibia 40.5949 0 0
rfoot -10.669 2.13457 0
rtoes -13.1314 0 0
lowerback -6.61848 -4.01933 -2.28819
upperback -1.4974 -5.28472 3.12329
thorax 2.67904 -2.66337 4.01228
lowerneck -20.0152 -5.38106 -12.7431
upperneck 21.0914 -6.99301 13.4748
head 11.0997 -2.65826 6.00105
lclavicle 1.17732e-14 -1.44597e-14 0
lhumerus -32.5141 -24.606 102.348
lradius 27.779 0 0
lwrist 5.19269 0 0
lhand -12.1565 -24.303 0
lfingers 7.12502 0 0
lthumb 13.9062 5.21216 0
rclavicle 1.17732e-14 -1.44597e-14 0
rhumerus -45.5633 7.40499 -82.4188
rradius 32.2974 0 0
rwrist -15.631 0 0
rhand -28.1002 -27.001 0
rfingers 7.12502 0 0
rthumb -1.4827 -56.9728 0
345
root 9.33414 16.7368 12.7416 6.08342 10.3163 -1.12446
lfemur 3.30185 7.8817 -11.8744
ltibia 44.6213 0 0
lfoot 5.85892 1.607 0
ltoes -8.75438 0 0
rfemur -32.1172 2.01934 24.6632
rtibia 40.0938 0 0
rfoot -10.9226 2.10131 0
rtoes -12.9865 0 0
lowerback -6.56611 -3.87392 -2.1702
upperback -1.49165 -5.09837 3.09846
thorax 2.62789 -2.56881 3.94194
lowerneck -20.0038 -5.43964 -12.7996
upperneck 21.0372 -7.07198 13.5419
head 11.0959 -2.69162 6.02152
lclavicle 1.35536e-14 -1.28709e-14 0
lhumerus -33.0594 -24.4771 102.255
lradius 27.6129 0 0
lwrist 5.4802 0 0
lhand -12.318 -24.0055 0
lfingers 7.12502 0 0
lthumb 13.7506 5.51998 0
rclavicle 1.35536e-14 -1.28709e-14 0
rhumerus -45.2621 7.89237 -82.6473
rradius 32.8653 0 0
rwrist -16.1961 0 0
rhand -28.246 -27.0412 0
rfingers 7.12502 0 0
rthumb -1.62348 -57.0117 0
346
root 9.32532 16.7687 12.876 6.11626 10.1772 -1.21609
lfemur 1.51029 7.90886 -12.0846
ltibia 46.7594 0 0
lfoot 4.91208 2.43505 0
ltoes -8.33489 0 0
rfemur -31.3414 2.23907 24.8903
rtibia 39.5443 0 0
rfoot -11.2091 2.04446 0
rtoes -12.8486 0 0
lowerback -6.51464 -3.72294 -2.05554
upperback -1.48441 -4.90403 3.07048
thorax 2.57832 -2.47036 3.87076
lowerneck -19.989 -5.4998 -12.8585
upperneck 20.9819 -7.15297 13.6099
head 11.0914 -2.72611 6.04235
lclavicle 1.53555e-14 -1.1198e-14 0
lhumerus -33.6019 -24.3646 102.141
lradius 27.4642 0 0
lwrist 5.79251 0 0
lhand -12.4761 -23.6953 0
lfingers 7.12502 0 0
lthumb 13.5982 5.84023 0
rclavicle 1.53555e-14 -1.1198e-14 0
rhumerus -44.9518 8.39598 -82.8836
rradius 33.4551 0 0
rwrist -16.7854 0 0
rhand -28.3982 -27.0755 0
rfingers 7.12502 0 0
rthumb -1.77047 -57.0446 0
347
root 9.31717 16.8011 13.0086 6.15193 10.0275 -1.30247
lfemur -0.319948 7.92863 -12.3223
ltibia 48.8731 0 0
lfoot 3.90804 3.27869 0
ltoes -7.90278 0 0
rfemur -30.5496 2.47071 25.1023
rtibia 38.9551 0 0
rfoot -11.5224 1.96875 0
rtoes -12.7197 0 0
lowerback -6.46417 -3.56728 -1.94387
upperback -1.47564 -4.70297 3.04014
thorax 2.53062 -2.36867 3.79924
lowerneck -19.9715 -5.56091 -12.9187
upperneck 20.9265 -7.23514 13.6777
head 11.0866 -2.76135 6.06313
lclavicle 1.71467e-14 -9.47139e-15 0
lhumerus -34.141 -24.2637 102.01
lradius 27.3314 0 0
lwrist 6.1236 0 0
lhand -12.6299 -23.377 0
lfingers 7.12502 0 0
lthumb 13.4499 6.16819 0
rclavicle 1.71467e-14 -9.47139e-15 0
rhumerus -44.6328 8.91131 -83.1243
rradius 34.0607 0 0
rwrist -17.3912 0 0
rhand -28.5553 -27.1043 0
rfingers 7.12502 0 0
rthumb -1.92225 -57.0721 0
348
root 9.30967 16.8336 13.1395 6.18935 9.86804 -1.38463
lfemur -2.17484 7.94104 -12.5814
ltibia 50.9422 0 0
lfoot 2.86182 4.12816 0
ltoes -7.46658 0 0
rfemur -29.745 2.71075 25.3016
rtibia 38.3345 0 0
rfoot -11.857 1.87896 0
rtoes -12.6016 0 0
lowerback -6.41481 -3.40785 -1.83486
upperback -1.4653 -4.49648 3.00825
thorax 2.48508 -2.26436 3.72788
lowerneck -19.952 -5.62235 -12.9792
upperneck 20.8719 -7.31764 13.7441
head 11.0817 -2.79699 6.08341
lclavicle 1.88955e-14 -7.72146e-15 0
lhumerus -34.6759 -24.17 101.864
lradius 27.2129 0 0
lwrist 6.46748 0 0
lhand -12.7786 -23.0553 0
lfingers 7.12502 0 0
lthumb 13.3066 6.49914 0
rclavicle 1.88955e-14 -7.72146e-15 0
rhumerus -44.3051 9.43384 -83.3661
rradius 34.6764 0 0
rwrist -18.0059 0 0
rhand -28.716 -27.128 0
rfingers 7.12502 0 0
rthumb -2.07739 -57.0943 0
349
root 9.3028 16.866 13.2691 6.22744 9.69951 -1.46356
lfemur -4.04038 7.94615 -12.8559
ltibia 52.9469 0 0
lfoot 1.78846 4.97372 0
ltoes -7.03482 0 0
rfemur -28.931 2.95571 25.4904
rtibia 37.6911 0 0
rfoot -12.2069 1.77984 0
rtoes -12.4962 0 0
lowerback -6.36665 -3.24553 -1.72816
upperback -1.45335 -4.28585 2.97561
thorax 2.44201 -2.15807 3.65718
lowerneck -19.9311 -5.6835 -13.0391
upperneck 20.819 -7.39964 13.8082
head 11.0769 -2.83266 6.10279
lclavicle 2.05699e-14 -5.97861e-15 0
lhumerus -35.2061 -24.0786 101.705
lradius 27.1071 0 0
lwrist 6.81812 0 0
lhand -12.9213 -22.7349 0
lfingers 7.12502 0 0
lthumb 13.1691 6.82834 0
rclavicle 2.05699e-14 -5.97861e-15 0
rhumerus -43.969 9.95906 -83.6057
rradius 35.2961 0 0
rwrist -18.6218 0 0
rhand -28.8786 -27.1469 0
rfingers 7.12502 0 0
rthumb -2.23447 -57.1117 0
350
root 9.29655 16.8978 13.3975 6.26514 9.52273 -1.5403
lfemur -5.90255 7.944 -13.1399
ltibia 54.8673 0 0
lfoot 0.703005 5.80562 0
ltoes -6.61601 0 0
rfemur -28.1108 3.20208 25.6713
rtibia 37.0332 0 0
rfoot -12.5664 1.67615 0
rtoes -12.4056 0 0
lowerback -6.31979 -3.08123 -1.62343
upperback -1.43976 -4.07236 2.94302
thorax 2.40168 -2.05042 3.58766
lowerneck -19.9096 -5.74374 -13.0972
upperneck 20.7688 -7.48028 13.8687
head 11.0726 -2.86798 6.12084
lclavicle 2.2138e-14 -4.27324e-15 0
lhumerus -35.7308 -23.9849 101.535
lradius 27.0124 0 0
lwrist 7.16951 0 0
lhand -13.057 -22.4204 0
lfingers 7.12502 0 0
lthumb 13.0383 7.15109 0
rclavicle 2.2138e-14 -4.27324e-15 0
rhumerus -43.6247 10.4825 -83.8396
rradius 35.9139 0 0
rwrist -19.2313 0 0
rhand -29.0418 -27.1614 0
rfingers 7.12502 0 0
rthumb -2.39207 -57.1247 0
351
root 9.29092 16.9288 13.525 6.30135 9.33849 -1.61584
lfemur -7.74734 7.93466 -13.4273
ltibia 56.6833 0 0
lfoot -0.379527 6.61412 0
ltoes -6.21869 0 0
rfemur -27.2877 3.44637 25.8465
rtibia 36.3693 0 0
rfoot -12.9297 1.57266 0
rtoes -12.3315 0 0
lowerback -6.27434 -2.91585 -1.52033
upperback -1.42448 -3.8573 2.91129
thorax 2.36439 -1.94206 3.51982
lowerneck -19.8882 -5.80244 -13.1527
upperneck 20.7223 -7.55874 13.9245
head 11.0688 -2.9026 6.13713
lclavicle 2.35677e-14 -2.63574e-15 0
lhumerus -36.2494 -23.8844 101.356
lradius 26.9272 0 0
lwrist 7.51566 0 0
lhand -13.1848 -22.1166 0
lfingers 7.12502 0 0
lthumb 12.915 7.46265 0
rclavicle 2.35677e-14 -2.63574e-15 0
rhumerus -43.2724 10.9995 -84.0646
rradius 36.5238 0 0
rwrist -19.8268 0 0
rhand -29.2041 -27.1719 0
rfingers 7.12502 0 0
rthumb -2.54875 -57.1336 0
352
root 9.28589 16.9585 13.6519 6.33501 9.14758 -1.69121
lfemur -9.56075 7.91817 -13.712
ltibia 58.3751 0 0
lfoot -1.4441 7.38946 0
ltoes -5.85138 0 0
rfemur -26.4651 3.68508 26.0185
rtibia 35.7079 0 0
rfoot -13.291 1.47411 0
rtoes -12.2759 0 0
lowerback -6.2304 -2.75028 -1.41852
upperback -1.40748 -3.64196 2.88121
thorax 2.33043 -1.83362 3.45416
lowerneck -19.8674 -5.85898 -13.2044
upperneck 20.6803 -7.63416 13.9747
head 11.066 -2.93613 6.15124
lclavicle 2.48273e-14 -1.09651e-15 0
lhumerus -36.7613 -23.7723 101.172
lradius 26.8499 0 0
lwrist 7.85054 0 0
lhand -13.304 -21.8282 0
lfingers 7.12502 0 0
lthumb 12.8001 7.7583 0
rclavicle 2.48273e-14 -1.09651e-15 0
rhumerus -42.9123 11.5057 -84.2773
rradius 37.12 0 0
rwrist -20.4005 0 0
rhand -29.3639 -27.1787 0
rfingers 7.12502 0 0
rthumb -2.70311 -57.1389 0
353
root 9.28146 16.9867 13.7784 6.36504 8.95079 -1.76742
lfemur -11.3288 7.89459 -13.9882
ltibia 59.9228 0 0
lfoot -2.47567 8.12192 0
ltoes -5.52261 0 0
rfemur -25.6463 3.91471 26.1897
rtibia 35.0575 0 0
rfoot -13.6446 1.38528 0
rtoes -12.2407 0 0
lowerback -6.18807 -2.58541 -1.31766
upperback -1.38871 -3.42762 2.85358
thorax 2.3001 -1.72572 3.39118
lowerneck -19.8481 -5.91274 -13.2514
upperneck 20.6438 -7.7057 14.0181
head 11.0644 -2.96822 6.16275
lclavicle 2.58847e-14 3.14069e-16 0
lhumerus -37.2657 -23.6439 100.984
lradius 26.7789 0 0
lwrist 8.16815 0 0
lhand -13.4135 -21.5598 0
lfingers 7.12502 0 0
lthumb 12.6945 8.03332 0
rclavicle 2.58847e-14 3.14069e-16 0
rhumerus -42.5445 11.9965 -84.4743
rradius 37.6964 0 0
rwrist -20.9448 0 0
rhand -29.5198 -27.1823 0
rfingers 7.12502 0 0
rthumb -2.8537 -57.1409 0
